<svg id="Слой_1" data-name="Слой 1" xmlns="http://www.w3.org/2000/svg" viewBox="0 0 45 45"><defs><style>.cls-1{fill:none;stroke:#201600;stroke-miterlimit:10;}</style></defs><title>icon</title><path class="cls-1" d="M7,37.36V22.71a1.77,1.77,0,0,1,1.77-1.77H14a1.77,1.77,0,0,1,1.77,1.77V37.36"/><path class="cls-1" d="M8,21V17.24a.83.83,0,0,1,.83-.82H14a.83.83,0,0,1,.83.82v4.2"/><line class="cls-1" x1="9.23" y1="16.31" x2="9.23" y2="12.49"/><line class="cls-1" x1="13.56" y1="16.31" x2="13.56" y2="12.49"/><line class="cls-1" x1="11.37" y1="16.31" x2="11.37" y2="10.41"/><line class="cls-1" x1="13.46" y1="24.07" x2="13.46" y2="34.48"/><line class="cls-1" x1="9.56" y1="17.46" x2="9.56" y2="19.85"/><path class="cls-1" d="M29.21,37.36V22.71A1.77,1.77,0,0,1,31,20.94h5.25A1.77,1.77,0,0,1,38,22.71V37.36"/><path class="cls-1" d="M30.17,21V17.24a.83.83,0,0,1,.83-.82h5.21a.83.83,0,0,1,.83.82v4.2"/><line class="cls-1" x1="31.44" y1="16.31" x2="31.44" y2="12.49"/><line class="cls-1" x1="35.77" y1="16.31" x2="35.77" y2="12.49"/><line class="cls-1" x1="33.58" y1="16.31" x2="33.58" y2="10.41"/><line class="cls-1" x1="35.67" y1="24.07" x2="35.67" y2="34.48"/><line class="cls-1" x1="31.77" y1="17.46" x2="31.77" y2="19.85"/><path class="cls-1" d="M18.1,34.59V19.94a1.78,1.78,0,0,1,1.78-1.78h5.24a1.78,1.78,0,0,1,1.78,1.78V34.59"/><path class="cls-1" d="M19.07,18.2V14.46a.82.82,0,0,1,.82-.82h5.22a.82.82,0,0,1,.82.82v4.2"/><line class="cls-1" x1="20.33" y1="13.54" x2="20.33" y2="9.72"/><line class="cls-1" x1="24.67" y1="13.54" x2="24.67" y2="9.72"/><line class="cls-1" x1="22.47" y1="13.54" x2="22.47" y2="7.64"/><line class="cls-1" x1="24.56" y1="21.3" x2="24.56" y2="31.71"/><line class="cls-1" x1="20.67" y1="14.68" x2="20.67" y2="17.07"/></svg>