<svg id="Слой_1" data-name="Слой 1" xmlns="http://www.w3.org/2000/svg" viewBox="0 0 45 45"><defs><style>.cls-1{fill:none;stroke:#201600;stroke-miterlimit:10;}.cls-2{fill:#201600;}</style></defs><title>icon</title><path class="cls-1" d="M17.33,25V21.59a5.32,5.32,0,1,1,10.64,0v3.5"/><path class="cls-1" d="M28.85,28.51H16.45a1,1,0,0,1-.92-1.15l.14-1.21a1,1,0,0,1,.93-.89H28.7a1,1,0,0,1,.92.89l.15,1.21A1,1,0,0,1,28.85,28.51Z"/><path class="cls-2" d="M20.73,16.25a1.92,1.92,0,0,1,3.83,0"/><path class="cls-2" d="M24,29.25a1.35,1.35,0,0,1-2.7,0"/><path class="cls-1" d="M11.87,33.13a15,15,0,0,1,0-21.26"/><path class="cls-1" d="M10.36,10.36a17.17,17.17,0,0,0,0,24.28"/><path class="cls-1" d="M34.64,34.64a17.17,17.17,0,0,0,0-24.28"/><path class="cls-1" d="M33.13,11.87a15,15,0,0,1,0,21.26"/><path class="cls-1" d="M13.62,31.38a12.55,12.55,0,0,1,0-17.76"/><path class="cls-1" d="M11.87,11.87a15,15,0,0,0,0,21.26"/><path class="cls-1" d="M33.13,33.13a15,15,0,0,0,0-21.26"/><path class="cls-1" d="M31.38,13.62a12.55,12.55,0,0,1,0,17.76"/></svg>