<svg id="Слой_1" data-name="Слой 1" xmlns="http://www.w3.org/2000/svg" viewBox="0 0 45 45"><defs><style>.cls-1,.cls-2,.cls-3{fill:none;stroke:#201600;stroke-miterlimit:10;}.cls-2{stroke-width:0.7px;}.cls-3{stroke-width:0.5px;}</style></defs><title>icon</title><rect class="cls-1" x="6.94" y="4.17" width="31.13" height="36.67" rx="2.83" ry="2.83"/><circle class="cls-2" cx="13.79" cy="11.26" r="2.92"/><circle class="cls-3" cx="13.79" cy="11.26" r="1.63"/><circle class="cls-3" cx="13.79" cy="11.26" r="0.53"/><rect class="cls-1" x="10.75" y="18.42" width="23.66" height="4.36"/><circle class="cls-1" cx="11.92" cy="26.9" r="0.93"/><circle class="cls-1" cx="16.51" cy="26.9" r="0.93"/><circle class="cls-1" cx="21.1" cy="26.9" r="0.93"/><circle class="cls-1" cx="11.92" cy="31.11" r="0.93"/><circle class="cls-1" cx="16.51" cy="31.11" r="0.93"/><circle class="cls-1" cx="21.1" cy="31.11" r="0.93"/><circle class="cls-1" cx="11.92" cy="35.31" r="0.93"/><circle class="cls-1" cx="16.51" cy="35.31" r="0.93"/><circle class="cls-1" cx="21.1" cy="35.31" r="0.93"/><circle class="cls-1" cx="32.87" cy="34.57" r="1.69"/><line class="cls-1" x1="14.26" y1="22.78" x2="15.03" y2="18.34"/><line class="cls-1" x1="19.08" y1="22.78" x2="19.86" y2="18.34"/><line class="cls-1" x1="21.22" y1="22.78" x2="22" y2="18.34"/></svg>