<svg id="Слой_1" data-name="Слой 1" xmlns="http://www.w3.org/2000/svg" viewBox="0 0 45 45"><defs><style>.cls-1{fill:none;stroke:#201600;stroke-miterlimit:10;}</style></defs><title>icon</title><path class="cls-1" d="M26.82,6.54h.68a.71.71,0,0,1,.71.71v3a.49.49,0,0,1,0,.12"/><path class="cls-1" d="M23,10.38a.49.49,0,0,1,0-.12v-3a.71.71,0,0,1,.71-.71h.72"/><path class="cls-1" d="M24.45,10.37v-4c0-.3.14-.54.32-.54h1.7c.18,0,.32.24.32.54v4"/><path class="cls-1" d="M27.5,21.28H23.74a1,1,0,0,1-1-.83l-.75-5a.88.88,0,0,1,0-.16V11.09a1,1,0,0,1,1-1h5.26a1,1,0,0,1,1,1V15.3a.86.86,0,0,1,0,.16l-.76,5A1,1,0,0,1,27.5,21.28Z"/><line class="cls-1" x1="29.24" y1="15.46" x2="26.73" y2="15.46"/><line class="cls-1" x1="29.24" y1="16.95" x2="26.73" y2="16.95"/><line class="cls-1" x1="28.7" y1="18.44" x2="26.73" y2="18.44"/><line class="cls-1" x1="28.52" y1="19.92" x2="26.73" y2="19.92"/><line class="cls-1" x1="22.19" y1="15.46" x2="24.7" y2="15.46"/><line class="cls-1" x1="22.19" y1="16.95" x2="24.7" y2="16.95"/><line class="cls-1" x1="22.73" y1="18.44" x2="24.7" y2="18.44"/><line class="cls-1" x1="22.91" y1="19.92" x2="24.7" y2="19.92"/><path class="cls-1" d="M20.3,30.15h.76a4.61,4.61,0,0,0,4.61-4.61V21.15"/><path class="cls-1" d="M21.12,30.15h-.76a4.6,4.6,0,0,0-4.61,4.61v4.38"/></svg>