<svg id="Слой_1" data-name="Слой 1" xmlns="http://www.w3.org/2000/svg" viewBox="0 0 17.75 23.58"><defs><style>.cls-1{fill:#424242;}.cls-2{fill:#fff;}</style></defs><title>icon_price</title><path class="cls-1" d="M13.92,21.62H1.3A1.3,1.3,0,0,1,0,20.32V2.57A1.3,1.3,0,0,1,1.3,1.28H13.92a1.3,1.3,0,0,1,1.3,1.29V20.32A1.3,1.3,0,0,1,13.92,21.62ZM1.3,2.08a.49.49,0,0,0-.5.49V20.32a.5.5,0,0,0,.5.5H13.92a.5.5,0,0,0,.5-.5V2.57a.49.49,0,0,0-.5-.49Z"/><rect class="cls-2" x="3.1" y="0.4" width="9.01" height="2.56" rx="0.9" ry="0.9"/><path class="cls-1" d="M11.22,3.36H4A1.3,1.3,0,0,1,2.7,2.07V1.3A1.3,1.3,0,0,1,4,0h7.22a1.3,1.3,0,0,1,1.3,1.3v.77A1.3,1.3,0,0,1,11.22,3.36ZM4,.8a.5.5,0,0,0-.5.5v.77a.5.5,0,0,0,.5.49h7.22a.5.5,0,0,0,.5-.49V1.3a.5.5,0,0,0-.5-.5Z"/><path class="cls-1" d="M12.24,5.66H2.8a.4.4,0,1,1,0-.8h9.44a.4.4,0,0,1,0,.8Z"/><path class="cls-1" d="M12.24,8H2.8a.4.4,0,0,1,0-.8h9.44a.4.4,0,0,1,0,.8Z"/><path class="cls-1" d="M12.24,10.31H2.8a.4.4,0,0,1,0-.8h9.44a.4.4,0,1,1,0,.8Z"/><path class="cls-1" d="M12.24,12.64H2.8a.4.4,0,0,1,0-.8h9.44a.4.4,0,0,1,0,.8Z"/><path class="cls-1" d="M12.24,15H2.8a.4.4,0,0,1,0-.8h9.44a.4.4,0,0,1,0,.8Z"/><path class="cls-1" d="M7.31,17.29H2.8a.41.41,0,0,1,0-.81H7.31a.41.41,0,0,1,0,.81Z"/><circle class="cls-2" cx="14.37" cy="20.2" r="3.13"/><path class="cls-1" d="M14.37,23.58a3.38,3.38,0,1,1,3.38-3.38A3.39,3.39,0,0,1,14.37,23.58Zm0-6.26a2.88,2.88,0,1,0,2.88,2.88A2.88,2.88,0,0,0,14.37,17.32Z"/><path class="cls-1" d="M14.72,20.52a.82.82,0,0,0,.89-.86c0-.57-.39-.84-1-.84h-1.2v1.31h-.32v.38h.32v.35h-.32v.39h.32v.33h.49v-.33h.79v-.39h-.79v-.34Zm-.78-1.3h.63c.3,0,.57.1.57.45s-.22.46-.53.46h-.67Z"/></svg>