<svg id="Слой_1" data-name="Слой 1" xmlns="http://www.w3.org/2000/svg" viewBox="0 0 45 45"><defs><style>.cls-1{fill:none;stroke:#201600;stroke-miterlimit:10;}</style></defs><title>icon</title><circle class="cls-1" cx="22.5" cy="18.29" r="11.54"/><circle class="cls-1" cx="22.5" cy="18.29" r="8.27"/><circle class="cls-1" cx="22.5" cy="18.29" r="3.62"/><path class="cls-1" d="M23.83,35H21.17a1.32,1.32,0,0,1-1.31-1.5l.33-2.43a1.32,1.32,0,0,1,1.31-1.15h2a1.32,1.32,0,0,1,1.31,1.15l.33,2.43A1.32,1.32,0,0,1,23.83,35Z"/><path class="cls-1" d="M19.47,35h6.07A2.48,2.48,0,0,1,28,37.46v0a.79.79,0,0,1-.79.79H17.78a.79.79,0,0,1-.79-.79v0A2.48,2.48,0,0,1,19.47,35Z"/></svg>